<svg width="1000" height="1000" viewBox="0 0 1000 1000" fill="none" xmlns="http://www.w3.org/2000/svg">
<path d="M287.697 323.298C262.887 393.679 299.83 470.847 370.211 495.657C440.592 520.467 517.76 483.525 542.571 413.143L576.883 410.525C577.16 410.504 577.416 410.368 577.589 410.15L596.228 386.698C596.585 386.248 597.247 386.192 597.676 386.574L623.194 409.312C623.383 409.481 623.629 409.571 623.882 409.566L661.133 408.702C661.443 408.695 661.731 408.545 661.915 408.296L680.729 382.762C681.086 382.278 681.786 382.216 682.223 382.63L701.318 400.746C701.491 400.91 701.716 401.007 701.955 401.019L741.037 403.027C741.36 403.044 741.67 402.904 741.871 402.651L780.688 353.81L740.219 318.49C740.033 318.328 739.793 318.24 739.546 318.244L541.808 321.18C528.315 284.904 499.414 254.658 460.057 240.784C389.676 215.974 312.507 252.916 287.697 323.298Z" fill="#898989"/>
<path d="M542.571 413.143C517.76 483.525 440.592 520.467 370.211 495.657C299.83 470.847 262.887 393.679 287.697 323.298C312.507 252.916 389.676 215.974 460.057 240.784C499.414 254.658 528.315 284.904 541.808 321.18M542.571 413.143L576.883 410.525C577.16 410.504 577.416 410.368 577.589 410.15L596.228 386.698C596.585 386.248 597.247 386.192 597.676 386.574L623.194 409.312C623.383 409.481 623.629 409.571 623.882 409.566L661.133 408.702C661.443 408.695 661.731 408.545 661.915 408.296L680.729 382.762C681.086 382.278 681.786 382.216 682.223 382.63L701.318 400.746C701.491 400.91 701.716 401.007 701.955 401.019L741.037 403.027C741.36 403.044 741.67 402.904 741.871 402.651L780.688 353.81M542.571 413.143C551.982 374.976 552.024 354.807 541.808 321.18M541.808 321.18L739.546 318.244C739.793 318.24 740.033 318.328 740.219 318.49L780.688 353.81M780.688 353.81L549.629 354.884" stroke="#232323" stroke-width="20"/>
<path d="M370.211 495.658C299.83 470.847 262.887 393.679 287.697 323.298C312.507 252.917 389.675 215.974 460.057 240.784C499.414 254.658 528.315 284.904 541.808 321.18C552.024 354.807 551.982 374.976 542.571 413.144C517.76 483.525 440.592 520.468 370.211 495.658Z" fill="white" stroke="#920000" stroke-width="20"/>
<circle cx="43.2393" cy="43.2393" r="43.2393" transform="matrix(-0.943117 -0.33246 -0.33246 0.943117 414.701 340.874)" fill="white" stroke="#232323" stroke-width="20"/>
<path d="M436.208 608.717H294.462V787.042L362.24 801.311C374.938 803.984 387.879 805.332 400.855 805.332H614.656C632.41 805.332 649.711 799.73 664.095 789.324L856.871 649.869C856.871 649.869 859.631 647.8 861.935 643.392C874.65 619.063 847.561 587.308 820.172 589.157C807.394 590.019 797.43 595 797.43 595L641.967 695.593L587.098 727.6C600.815 695.593 577.953 681.876 577.953 681.876L436.208 608.717Z" fill="white"/>
<path d="M587.098 727.6C600.815 695.593 577.953 681.876 577.953 681.876L454.766 618.296C442.571 612.002 429.047 608.717 415.323 608.717H294.462V787.042L362.24 801.311C374.938 803.984 387.879 805.332 400.855 805.332H614.656C632.41 805.332 649.711 799.73 664.095 789.324L856.871 649.869C856.871 649.869 859.631 647.8 861.935 643.392C874.65 619.063 847.561 587.308 820.172 589.157C807.394 590.019 797.43 595 797.43 595L587.098 727.6ZM587.098 727.6C573.381 755.035 541.374 736.745 541.374 736.745L436.208 695.593" stroke="#232323" stroke-width="20" stroke-linecap="round" stroke-linejoin="round"/>
<path d="M216.731 581.287H157.744C147.392 581.287 139 589.679 139 600.031V800.309C139 810.661 147.392 819.053 157.744 819.053H275.718C286.071 819.053 294.463 810.661 294.463 800.309V600.031C294.463 589.679 286.071 581.287 275.718 581.287H216.731ZM216.731 581.287V695.598" stroke="#920000" stroke-width="20" stroke-linecap="round"/>
</svg>
