<svg width="1000" height="1000" viewBox="0 0 1000 1000" fill="none" xmlns="http://www.w3.org/2000/svg">
<path d="M307.123 610.752C307.123 604.227 312.4 598.937 318.91 598.937H420.311C426.82 598.937 432.097 604.227 432.097 610.752V841.758C432.097 852.574 418.801 857.705 411.566 849.68L378.355 812.846C373.675 807.656 365.546 807.656 360.866 812.846L327.655 849.68C320.42 857.705 307.123 852.574 307.123 841.758V610.752Z" stroke="#920000" stroke-width="20"/>
<path d="M480.498 568.338C476.268 563.378 468.828 562.795 463.879 567.035L386.804 633.081C381.856 637.321 381.274 644.779 385.504 649.739L535.254 825.329C542.265 833.55 555.698 828.79 555.995 817.978L557.361 768.348C557.554 761.354 563.733 756.059 570.655 756.956L619.777 763.323C630.478 764.71 637.259 752.15 630.248 743.928L480.498 568.338Z" stroke="#920000" stroke-width="20"/>
<path d="M333.779 301.543C353.197 281.764 385.065 281.764 404.483 301.543L411.065 308.248C422.4 319.794 438.66 325.077 454.617 322.399L463.883 320.843C491.218 316.255 517 334.987 521.083 362.402L522.467 371.695C524.851 387.698 534.9 401.53 549.384 408.742L557.794 412.93C582.606 425.286 592.453 455.594 579.643 480.173L575.3 488.505C567.822 502.853 567.822 519.95 575.3 534.298L579.643 542.63C592.453 567.21 582.606 597.517 557.794 609.873L549.384 614.061C534.9 621.273 524.851 635.105 522.467 651.109L521.083 660.401C517 687.817 491.218 706.548 463.883 701.96L454.617 700.405C438.66 697.726 422.4 703.009 411.065 714.556L404.483 721.26C385.065 741.039 353.197 741.039 333.779 721.26L327.198 714.556C315.862 703.009 299.603 697.726 283.645 700.405L274.38 701.96C247.045 706.548 221.263 687.817 217.179 660.401L215.795 651.109C213.412 635.105 203.363 621.273 188.879 614.061L180.469 609.873C155.657 597.517 145.809 567.21 158.62 542.63L162.962 534.298C170.441 519.95 170.441 502.853 162.962 488.505L158.62 480.173C145.809 455.594 155.657 425.286 180.469 412.93L188.879 408.742C203.363 401.53 213.412 387.698 215.795 371.695L217.179 362.402C221.263 334.987 247.045 316.255 274.38 320.843L283.645 322.399C299.603 325.077 315.862 319.794 327.198 308.248L333.779 301.543Z" fill="#898989" stroke="#232323" stroke-width="20"/>
<circle cx="369.426" cy="511.391" r="167.48" fill="white" stroke="#232323" stroke-width="20"/>
<path d="M284.947 512.492L345.479 572.78L452.376 441.941" stroke="#920000" stroke-width="20" stroke-linecap="round" stroke-linejoin="round"/>
<path d="M846 359.89C846 477.465 750.686 572.779 633.11 572.779C515.535 572.779 420.221 477.465 420.221 359.89C420.221 242.314 515.535 147 633.11 147C750.686 147 846 242.314 846 359.89Z" fill="white"/>
<path d="M420.221 359.89C420.221 477.465 515.535 572.779 633.11 572.779C750.686 572.779 846 477.465 846 359.89C846 242.314 750.686 147 633.11 147C515.535 147 420.221 242.314 420.221 359.89ZM420.221 359.89H457.571" stroke="#232323" stroke-width="20" stroke-linecap="round"/>
<path d="M807.816 359.825H845.166" stroke="#232323" stroke-width="20" stroke-linecap="round"/>
<path d="M633.046 534.595L633.046 571.945" stroke="#232323" stroke-width="20" stroke-linecap="round"/>
<path d="M633.046 147L633.046 184.35" stroke="#232323" stroke-width="20" stroke-linecap="round"/>
<path d="M535.794 368.281H633.046V256.936" stroke="#920000" stroke-width="20" stroke-linecap="round" stroke-linejoin="round"/>
</svg>
