<svg width="1000" height="1000" viewBox="0 0 1000 1000" fill="none" xmlns="http://www.w3.org/2000/svg">
<circle cx="311" cy="374" r="128" fill="#898989" stroke="#232323" stroke-width="20"/>
<path d="M531.98 721.074C532.004 722.839 530.877 724.395 529.178 724.874C512.189 729.669 420.527 754 310 754C199.473 754 107.811 729.669 90.8216 724.874C89.1232 724.395 87.9964 722.839 88.0197 721.074C89.617 599.81 188.389 502 310 502C431.611 502 530.383 599.81 531.98 721.074Z" fill="#898989" stroke="#232323" stroke-width="20"/>
<path fill-rule="evenodd" clip-rule="evenodd" d="M632.285 323C633.39 323 634.286 323.896 634.285 325.001L634.268 392.714L634.25 462.429L634.232 532.143L634.214 601.857L634.214 656.286C634.214 690.357 603.5 718.143 566.071 718.143C528.643 718.143 498 690.286 498 656.214L498 601.786L498.036 532.089L498.071 462.393L498.107 392.696L498.142 324.999C498.142 323.895 499.038 323 500.142 323C544.168 323 588.259 323 632.285 323Z" fill="white"/>
<path d="M634.214 601.857L634.214 656.286C634.214 690.357 603.5 718.143 566.071 718.143C528.643 718.143 498 690.286 498 656.214L498 601.786M634.214 601.857L498 601.786M634.214 601.857L634.232 532.143M498 601.786L498.036 532.089M498.071 462.393L634.25 462.429M498.071 462.393L498.107 392.696M498.071 462.393L498.036 532.089M634.25 462.429L634.268 392.714M634.25 462.429L634.232 532.143M498.107 392.696L498.142 324.999C498.142 323.895 499.038 323 500.142 323C544.168 323 588.259 323 632.285 323C633.39 323 634.286 323.896 634.285 325.001L634.268 392.714M498.107 392.696L634.268 392.714M498.036 532.089L634.232 532.143" stroke="#920000" stroke-width="20"/>
<path fill-rule="evenodd" clip-rule="evenodd" d="M797.488 403.705C798.442 404.262 798.763 405.487 798.206 406.441L764.054 464.893L728.893 525.071L693.732 585.25L658.572 645.428L631.143 692.428C614 721.857 573.5 730.428 541.143 711.5C508.786 692.643 496.429 653.143 513.572 623.714L541 576.714L576.161 516.536L611.322 456.357L646.482 396.179L680.634 337.727C681.191 336.773 682.416 336.452 683.37 337.01C721.431 359.263 759.427 381.452 797.488 403.705Z" fill="white"/>
<path d="M658.572 645.428L631.143 692.428C614 721.857 573.5 730.428 541.143 711.5C508.786 692.643 496.429 653.143 513.572 623.714L541 576.714M658.572 645.428L693.732 585.25M658.572 645.428L541 576.714M541 576.714L576.161 516.536M611.322 456.357L728.893 525.071M611.322 456.357L646.482 396.179M611.322 456.357L576.161 516.536M728.893 525.071L764.054 464.893M728.893 525.071L693.732 585.25M646.482 396.179L680.634 337.727C681.191 336.773 682.416 336.452 683.37 337.01C721.431 359.263 759.427 381.452 797.488 403.705C798.442 404.262 798.763 405.487 798.206 406.441L764.054 464.893M646.482 396.179L764.054 464.893M576.161 516.536L693.732 585.25" stroke="#232323" stroke-width="20"/>
<path fill-rule="evenodd" clip-rule="evenodd" d="M898.579 554.266C899.127 555.224 898.796 556.445 897.838 556.995L839.125 590.679L778.679 625.357L718.232 660.036L657.786 694.714L610.572 721.786C581.072 738.714 541.643 726 523 693.5C504.357 661 513.286 620.572 542.786 603.643L590 576.572L650.447 541.893L710.893 507.214L771.339 472.536L830.051 438.853C831.009 438.303 832.231 438.634 832.781 439.593C854.692 477.794 876.668 515.997 898.579 554.266Z" fill="white"/>
<path d="M710.893 507.214L778.679 625.357M710.893 507.214L771.339 472.536M710.893 507.214L650.447 541.893M778.679 625.357L839.125 590.679M778.679 625.357L718.232 660.036M771.339 472.536L830.051 438.853C831.009 438.303 832.231 438.634 832.781 439.593C854.692 477.794 876.668 515.997 898.579 554.266C899.127 555.224 898.796 556.445 897.838 556.995L839.125 590.679M771.339 472.536L839.125 590.679M650.447 541.893L590 576.572L542.786 603.643C513.286 620.572 504.357 661 523 693.5C541.643 726 581.072 738.714 610.572 721.786L657.786 694.714L718.232 660.036M650.447 541.893L718.232 660.036" stroke="#920000" stroke-width="20"/>
<path fill-rule="evenodd" clip-rule="evenodd" d="M911.357 735C911.357 736.105 910.462 737 909.357 737L828.054 737L744.75 737L661.447 737L578.143 737C544.072 737 516.286 706.357 516.286 668.929C516.286 631.5 544.143 600.857 578.143 600.857L661.447 600.857L744.75 600.857L828.054 600.857L909.357 600.857C910.462 600.857 911.357 601.753 911.357 602.857L911.357 735Z" fill="white"/>
<path d="M578.143 737C544.072 737 516.286 706.357 516.286 668.929C516.286 631.5 544.143 600.857 578.143 600.857M578.143 737L661.447 737M578.143 737L578.143 600.857M578.143 600.857L661.447 600.857M744.75 600.857L744.75 737M744.75 600.857L828.054 600.857M744.75 600.857L661.447 600.857M744.75 737L828.054 737M744.75 737L661.447 737M828.054 600.857L909.357 600.857C910.462 600.857 911.357 601.753 911.357 602.857L911.357 735C911.357 736.105 910.462 737 909.357 737L828.054 737M828.054 600.857L828.054 737M661.447 600.857L661.447 737" stroke="#232323" stroke-width="20"/>
<path d="M539.968 669.072C539.968 676.291 545.82 682.143 553.039 682.143C560.259 682.143 566.111 676.291 566.111 669.072C566.111 661.852 560.259 656 553.039 656C545.82 656 539.968 661.852 539.968 669.072Z" fill="white" stroke="#920000" stroke-width="20"/>
</svg>
