<svg width="1000" height="1000" viewBox="0 0 1000 1000" fill="none" xmlns="http://www.w3.org/2000/svg">
<path d="M232.436 303.486H852C854.761 303.486 857 305.725 857 308.486V892.492C857 895.254 854.761 897.492 852 897.492H232.436C184.736 897.492 143 868.426 143 825.198M232.436 303.486V222.776C232.436 220.015 230.191 217.765 227.431 217.875C171.826 220.094 143 259.328 143 303.486V825.198M232.436 303.486V512.916V717.346C232.436 720.108 230.195 722.336 227.435 722.436C174.544 724.36 143.001 757.255 143 825.198" stroke="black" stroke-width="20"/>
<path d="M143 303.486V825.198C143.001 757.255 174.544 724.36 227.435 722.436C230.195 722.336 232.436 720.108 232.436 717.346V512.916V303.486V222.776C232.436 220.015 230.191 217.765 227.431 217.875C171.826 220.094 143 259.328 143 303.486Z" fill="#898989" stroke="black" stroke-width="20"/>
<path d="M669.668 569.269V558.946C669.668 550.463 662.791 543.586 654.308 543.586V543.586" stroke="#232323" stroke-width="20" stroke-linecap="round" stroke-dasharray="40 40"/>
<path d="M720.515 569.269V558.946C720.515 550.463 727.392 543.586 735.875 543.586V543.586" stroke="#232323" stroke-width="20" stroke-linecap="round" stroke-dasharray="40 40"/>
<path d="M333.335 620.355H384.182" stroke="#920000" stroke-width="20" stroke-linecap="round" stroke-dasharray="40 40"/>
<path d="M669.668 608.352H720.515" stroke="#920000" stroke-width="20" stroke-linecap="round" stroke-dasharray="40 40"/>
<path d="M669.668 684.283H720.515" stroke="#920000" stroke-width="20" stroke-linecap="round" stroke-dasharray="40 40"/>
<path d="M695.092 481.613L695.092 564.803" stroke="#232323" stroke-width="20" stroke-linecap="round" stroke-dasharray="40 40"/>
<path d="M434.765 569.27H291.712C287.788 569.27 284.607 572.45 284.607 576.374V721.286C284.607 725.21 287.788 728.39 291.712 728.39H434.765M434.765 569.27V728.39M434.765 569.27H584.923M434.765 728.39H584.923M584.923 569.27H799.214C803.138 569.27 806.319 572.45 806.319 576.374V648.83M584.923 569.27V648.83M584.923 728.39H799.214C803.138 728.39 806.319 725.21 806.319 721.286V648.83M584.923 728.39V648.83M584.923 648.83H806.319" stroke="#232323" stroke-width="20" stroke-linecap="round" stroke-dasharray="40 40"/>
<rect x="465.75" y="633.476" width="85.8044" height="64.765" rx="7.10486" stroke="#920000" stroke-width="20" stroke-linecap="round" stroke-dasharray="40 40"/>
<ellipse cx="471.311" cy="600.256" rx="11.9173" ry="12.5622" fill="#920000"/>
<ellipse cx="508.917" cy="600.256" rx="11.9173" ry="12.5622" fill="#920000"/>
<ellipse cx="546.523" cy="600.256" rx="11.9173" ry="12.5622" fill="#920000"/>
<path d="M679.454 164.838L722.375 189.618C726.201 191.827 731.094 190.516 733.303 186.69L758.689 142.721C760.898 138.895 759.587 134.002 755.76 131.793L712.84 107.013C709.013 104.804 704.121 106.115 701.912 109.941L676.526 153.91C674.317 157.736 675.628 162.629 679.454 164.838Z" fill="#898989" stroke="#232323" stroke-width="20"/>
<path d="M737.317 179.739L561.573 484.136L504.773 451.342L592.645 299.144L680.517 146.945" fill="#898989" stroke="#232323" stroke-width="20" stroke-linejoin="round"/>
<path d="M493.86 536.963L561.573 484.136L504.773 451.342L493.86 536.963Z" fill="#898989" stroke="#232323" stroke-width="20" stroke-linejoin="round"/>
</svg>
