<svg width="1000" height="1000" viewBox="0 0 1000 1000" fill="none" xmlns="http://www.w3.org/2000/svg">
<path d="M623.879 242L623.879 283.623" stroke="#920000" stroke-width="20" stroke-linecap="round"/>
<path d="M644.328 242L602.705 242" stroke="#920000" stroke-width="20" stroke-linecap="round"/>
<path d="M861 520.477C861 651.503 754.782 757.721 623.756 757.721C492.729 757.721 386.511 651.503 386.511 520.477C386.511 389.45 492.729 283.232 623.756 283.232C754.782 283.232 861 389.45 861 520.477Z" fill="white"/>
<path d="M386.511 520.477C386.511 651.503 492.729 757.721 623.756 757.721C754.782 757.721 861 651.503 861 520.477C861 389.45 754.782 283.232 623.756 283.232C492.729 283.232 386.511 389.45 386.511 520.477ZM386.511 520.477H428.134" stroke="#232323" stroke-width="20" stroke-linecap="round"/>
<path d="M818.448 520.404H860.071" stroke="#232323" stroke-width="20" stroke-linecap="round"/>
<path d="M138 520.795L325.609 520.6" stroke="#920000" stroke-width="20" stroke-linecap="round"/>
<path d="M172.546 439.248L335.249 439.248" stroke="#232323" stroke-width="20" stroke-linecap="round"/>
<path d="M231.61 357.897L358.651 357.897" stroke="#920000" stroke-width="20" stroke-linecap="round"/>
<path d="M231.61 683.498L358.651 683.498" stroke="#920000" stroke-width="20" stroke-linecap="round"/>
<path d="M172.546 602.146L335.249 602.146" stroke="#232323" stroke-width="20" stroke-linecap="round"/>
<path d="M623.684 715.169L623.684 756.792" stroke="#232323" stroke-width="20" stroke-linecap="round"/>
<path d="M623.684 283.232L623.684 324.855" stroke="#232323" stroke-width="20" stroke-linecap="round"/>
<path d="M515.307 529.829H623.684V405.745" stroke="#920000" stroke-width="20" stroke-linecap="round" stroke-linejoin="round"/>
</svg>
