<svg width="1000" height="1000" viewBox="0 0 1000 1000" fill="none" xmlns="http://www.w3.org/2000/svg">
<rect x="169" y="267" width="625" height="328" rx="4" stroke="#232323" stroke-width="20"/>
<rect x="265" y="342" width="432" height="178" rx="29" fill="#898989" stroke="#232323" stroke-width="20"/>
<path d="M297 546.5V653.5C297 653.5 288 690.5 206 690.5C124 690.5 113 653.5 113 653.5V546.5C113 520.819 154.19 500 205 500C255.81 500 297 520.819 297 546.5Z" fill="white"/>
<path d="M113 546.5V653.5C113 653.5 124 690.5 206 690.5C288 690.5 297 653.5 297 653.5V546.5M113 546.5C113 572.181 154.19 593 205 593C255.81 593 297 572.181 297 546.5M113 546.5C113 520.819 154.19 500 205 500C255.81 500 297 520.819 297 546.5" stroke="#920000" stroke-width="20"/>
<path d="M113 613.5C113 639.181 154.19 660 205 660C255.81 660 297 639.181 297 613.5" stroke="#920000" stroke-width="20"/>
<path d="M113 580.5C113 606.181 154.19 627 205 627C255.81 627 297 606.181 297 580.5" stroke="#920000" stroke-width="20"/>
<path d="M886 524.5V631.5C886 631.5 877 668.5 795 668.5C713 668.5 702 631.5 702 631.5V524.5C702 498.819 743.19 478 794 478C844.81 478 886 498.819 886 524.5Z" fill="white"/>
<path d="M702 524.5V631.5C702 631.5 713 668.5 795 668.5C877 668.5 886 631.5 886 631.5V524.5M702 524.5C702 550.181 743.19 571 794 571C844.81 571 886 550.181 886 524.5M702 524.5C702 498.819 743.19 478 794 478C844.81 478 886 498.819 886 524.5" stroke="#920000" stroke-width="20"/>
<path d="M702 591.5C702 617.181 743.19 638 794 638C844.81 638 886 617.181 886 591.5" stroke="#920000" stroke-width="20"/>
<path d="M702 558.5C702 584.181 743.19 605 794 605C844.81 605 886 584.181 886 558.5" stroke="#920000" stroke-width="20"/>
<path d="M886 428.5V535.5C886 535.5 877 572.5 795 572.5C713 572.5 702 535.5 702 535.5V428.5C702 402.819 743.19 382 794 382C844.81 382 886 402.819 886 428.5Z" fill="white"/>
<path d="M702 428.5V535.5C702 535.5 713 572.5 795 572.5C877 572.5 886 535.5 886 535.5V428.5M702 428.5C702 454.181 743.19 475 794 475C844.81 475 886 454.181 886 428.5M702 428.5C702 402.819 743.19 382 794 382C844.81 382 886 402.819 886 428.5" stroke="#920000" stroke-width="20"/>
<path d="M702 495.5C702 521.181 743.19 542 794 542C844.81 542 886 521.181 886 495.5" stroke="#920000" stroke-width="20"/>
<path d="M702 462.5C702 488.181 743.19 509 794 509C844.81 509 886 488.181 886 462.5" stroke="#920000" stroke-width="20"/>
<path d="M697 588.5V695.5C697 695.5 688 732.5 606 732.5C524 732.5 513 695.5 513 695.5V588.5C513 562.819 554.19 542 605 542C655.81 542 697 562.819 697 588.5Z" fill="white"/>
<path d="M513 588.5V695.5C513 695.5 524 732.5 606 732.5C688 732.5 697 695.5 697 695.5V588.5M513 588.5C513 614.181 554.19 635 605 635C655.81 635 697 614.181 697 588.5M513 588.5C513 562.819 554.19 542 605 542C655.81 542 697 562.819 697 588.5" stroke="#232323" stroke-width="20"/>
<path d="M513 655.5C513 681.181 554.19 702 605 702C655.81 702 697 681.181 697 655.5" stroke="#232323" stroke-width="20"/>
<path d="M513 622.5C513 648.181 554.19 669 605 669C655.81 669 697 648.181 697 622.5" stroke="#232323" stroke-width="20"/>
</svg>
