<svg width="1000" height="1000" viewBox="0 0 1000 1000" fill="none" xmlns="http://www.w3.org/2000/svg">
<path d="M465.929 187.624C483.503 166.881 515.497 166.881 533.071 187.624L564.465 224.679C575.242 237.399 592.282 242.935 608.478 238.979L655.657 227.454C682.067 221.003 707.95 239.808 709.976 266.919L713.594 315.351C714.836 331.976 725.367 346.471 740.795 352.79L785.738 371.197C810.896 381.501 820.783 411.929 806.486 435.053L780.946 476.361C772.179 490.541 772.179 508.459 780.946 522.639L806.486 563.947C820.783 587.071 810.896 617.499 785.738 627.803L740.795 646.21C725.368 652.529 714.836 667.024 713.594 683.649L709.976 732.081C707.95 759.192 682.067 777.997 655.657 771.546L608.478 760.021C592.282 756.065 575.242 761.601 564.465 774.321L533.071 811.376C515.497 832.119 483.503 832.119 465.929 811.376L434.535 774.321C423.758 761.601 406.718 756.065 390.522 760.021L343.343 771.546C316.933 777.997 291.05 759.192 289.024 732.081L285.406 683.649C284.164 667.024 273.632 652.529 258.205 646.21L213.262 627.803C188.104 617.499 178.217 587.071 192.514 563.947L218.054 522.639C226.821 508.459 226.821 490.541 218.054 476.361L192.514 435.053C178.217 411.929 188.104 381.501 213.262 371.197L258.205 352.79C273.632 346.471 284.164 331.976 285.406 315.351L289.024 266.919C291.05 239.808 316.933 221.003 343.343 227.454L390.522 238.979C406.718 242.935 423.758 237.399 434.535 224.679L465.929 187.624Z" fill="white" stroke="#232323" stroke-width="20"/>
<path d="M380.683 615.842L618.317 378.208" stroke="#920000" stroke-width="20" stroke-linecap="round"/>
<circle cx="431.5" cy="428.5" r="50.5" fill="white" stroke="#920000" stroke-width="20"/>
<circle cx="567.5" cy="565.5" r="50.5" fill="white" stroke="#920000" stroke-width="20"/>
</svg>
