<svg width="1000" height="1000" viewBox="0 0 1000 1000" fill="none" xmlns="http://www.w3.org/2000/svg">
<path d="M674.864 595.287H552.406C549.298 595.287 546.939 592.346 547.786 589.349C552.767 571.659 553.197 552.498 553.197 534.377C553.197 524.374 553.682 513.01 552.572 502.063C551.448 490.922 548.701 480.197 542.139 471.733C534.868 462.34 524.018 455.333 511.947 455.333C483.976 455.333 479.55 482.749 476.941 504.935C473.903 530.839 472.696 557.631 461.235 581.51C453.215 598.229 441.852 612.589 424.009 619.624C410.287 625.035 400.228 629.253 385.757 632.069C383.523 632.499 381.899 634.428 381.899 636.717V817.782C381.899 820.419 384.036 822.555 386.672 822.555H436.774C438.3 822.555 439.688 823.304 440.603 824.525C450.482 837.776 466.272 846.364 484.073 846.364H641.038C663.945 846.364 682.689 827.62 682.689 804.712C682.689 798.788 681.26 793.182 678.735 788.201C677.736 786.231 678.25 783.831 679.97 782.457C688.461 775.686 693.942 760.244 693.942 748.603V743.83C693.942 737.906 692.513 732.3 689.988 727.319C688.989 725.349 689.502 722.949 691.222 721.575C699.714 714.804 705.208 704.398 705.208 692.757V687.984C705.208 682.06 703.779 676.454 701.254 671.473C700.255 669.503 700.768 667.103 702.503 665.729C710.994 658.958 716.488 648.552 716.488 636.911C716.488 614.004 697.744 595.26 674.836 595.26L674.864 595.287Z" stroke="#232323" stroke-width="20"/>
<rect width="98.3994" height="228.895" rx="20.0227" transform="matrix(-1 -8.74228e-08 -8.74228e-08 1 382.027 612.069)" fill="white" stroke="#920000" stroke-width="20"/>
<path d="M492.697 173.938C494.838 167.348 504.162 167.348 506.303 173.938L527.345 238.699C528.303 241.646 531.049 243.642 534.148 243.642H602.242C609.171 243.642 612.053 252.509 606.446 256.582L551.358 296.606C548.851 298.428 547.801 301.657 548.759 304.604L569.801 369.365C571.942 375.955 564.399 381.435 558.793 377.362L503.705 337.338C501.197 335.516 497.803 335.516 495.295 337.338L440.207 377.362C434.601 381.435 427.058 375.955 429.199 369.365L450.241 304.604C451.199 301.657 450.149 298.428 447.642 296.606L392.554 256.582C386.947 252.509 389.829 243.642 396.758 243.642H464.852C467.951 243.642 470.697 241.646 471.655 238.699L492.697 173.938Z" fill="#920000" stroke="#920000" stroke-width="20"/>
<path d="M261.491 275.291C263.265 269.83 270.991 269.83 272.765 275.291L290.2 328.95C290.993 331.392 293.269 333.045 295.837 333.045L352.257 333.045C357.999 333.045 360.386 340.393 355.741 343.767L310.096 376.93C308.019 378.44 307.149 381.115 307.943 383.557L325.378 437.216C327.152 442.677 320.902 447.217 316.257 443.842L270.612 410.68C268.535 409.17 265.722 409.17 263.644 410.68L217.999 443.843C213.354 447.217 207.104 442.677 208.879 437.216L226.313 383.557C227.107 381.115 226.238 378.44 224.16 376.93L178.515 343.767C173.87 340.393 176.258 333.045 181.999 333.045L238.419 333.045C240.987 333.045 243.263 331.392 244.056 328.95L261.491 275.291Z" fill="#898989" stroke="#232323" stroke-width="20"/>
<path d="M733.731 275.291C735.505 269.83 743.23 269.83 745.005 275.291L762.44 328.95C763.233 331.392 765.509 333.045 768.076 333.045L824.497 333.045C830.238 333.045 832.626 340.393 827.98 343.767L782.336 376.93C780.258 378.44 779.389 381.115 780.182 383.557L797.617 437.216C799.392 442.677 793.142 447.217 788.496 443.842L742.852 410.68C740.774 409.17 737.961 409.17 735.884 410.68L690.239 443.843C685.594 447.217 679.344 442.677 681.118 437.216L698.553 383.557C699.347 381.115 698.477 378.44 696.4 376.93L650.755 343.767C646.11 340.393 648.497 333.045 654.239 333.045L710.659 333.045C713.227 333.045 715.503 331.392 716.296 328.95L733.731 275.291Z" fill="#898989" stroke="#232323" stroke-width="20"/>
<path d="M149.053 470.184C150.827 464.723 158.553 464.723 160.327 470.184L177.762 523.842C178.555 526.285 180.831 527.938 183.399 527.938L239.819 527.938C245.561 527.938 247.948 535.285 243.303 538.66L197.658 571.823C195.581 573.332 194.711 576.008 195.505 578.45L212.94 632.108C214.714 637.569 208.464 642.11 203.819 638.735L158.174 605.572C156.097 604.063 153.284 604.063 151.206 605.572L105.561 638.735C100.916 642.11 94.6663 637.569 96.4406 632.108L113.875 578.45C114.669 576.008 113.8 573.332 111.722 571.823L66.0774 538.66C61.4323 535.285 63.8195 527.938 69.5612 527.938L125.981 527.938C128.549 527.938 130.825 526.285 131.618 523.842L149.053 470.184Z" fill="#898989" stroke="#232323" stroke-width="20"/>
<path d="M838.673 470.184C840.447 464.723 848.173 464.723 849.947 470.184L867.382 523.842C868.175 526.285 870.451 527.938 873.019 527.938L929.439 527.938C935.18 527.938 937.568 535.285 932.923 538.66L887.278 571.823C885.2 573.332 884.331 576.008 885.125 578.45L902.559 632.108C904.334 637.569 898.084 642.11 893.439 638.735L847.794 605.572C845.716 604.063 842.903 604.063 840.826 605.572L795.181 638.735C790.536 642.11 784.286 637.569 786.06 632.108L803.495 578.45C804.289 576.008 803.419 573.332 801.342 571.823L755.697 538.66C751.052 535.285 753.439 527.938 759.181 527.938L815.601 527.938C818.169 527.938 820.445 526.285 821.238 523.842L838.673 470.184Z" fill="#898989" stroke="#232323" stroke-width="20"/>
</svg>
