<svg width="1000" height="1000" viewBox="0 0 1000 1000" fill="none" xmlns="http://www.w3.org/2000/svg">
<path d="M795.897 628.178C795.901 628.174 795.903 628.168 795.903 628.162C795.746 622.648 795.332 617.177 794.707 611.778C794.227 607.637 791.001 604.385 786.889 603.701L758.915 599.043C755.471 598.47 752.608 596.075 751.435 592.787L741.511 564.961C740.345 561.691 741.031 558.045 743.308 555.424L762.008 533.887C764.735 530.748 765.154 526.199 762.898 522.707C756.821 513.302 749.995 504.451 742.517 496.215C739.692 493.103 735.128 492.355 731.375 494.248L706.075 507.009C702.948 508.586 699.21 508.339 696.318 506.363L672.035 489.777C669.161 487.814 667.572 484.452 667.879 480.986L670.402 452.484C670.77 448.327 668.424 444.385 664.528 442.889C654.671 439.103 644.444 436.048 633.929 433.825C629.83 432.959 625.706 435.017 623.77 438.732L610.593 464.021C608.974 467.129 605.793 469.11 602.29 469.192L572.956 469.883C569.465 469.965 566.204 468.15 564.436 465.139L549.978 440.527C547.853 436.91 543.622 435.065 539.566 436.14C528.705 439.019 518.205 442.753 508.144 447.291C504.341 449.007 502.228 453.075 502.834 457.202L506.992 485.503C507.498 488.951 506.099 492.404 503.336 494.527L479.981 512.472C477.209 514.602 473.5 515.06 470.293 513.669L444.288 502.39C440.44 500.722 435.938 501.723 433.295 504.979C426.288 513.612 419.961 522.832 414.41 532.577C412.35 536.193 413.026 540.716 415.93 543.698L435.391 563.687C437.782 566.143 438.685 569.685 437.763 572.986L429.718 601.761C428.766 605.164 426.026 607.772 422.58 608.552L394.986 614.804C390.914 615.727 387.88 619.171 387.64 623.34C387.302 629.197 387.199 635.139 387.383 641.147C387.58 646.426 387.964 651.634 388.521 656.786C388.971 660.957 392.198 664.255 396.334 664.955L424.275 669.684C427.719 670.267 430.577 672.673 431.74 675.967L441.567 703.818C442.723 707.095 442.021 710.742 439.731 713.357L420.927 734.818C418.174 737.96 417.746 742.533 420.011 746.044C426.095 755.476 432.904 764.402 440.375 772.678C443.187 775.793 447.741 776.551 451.494 774.673L476.865 761.984C479.996 760.417 483.731 760.676 486.617 762.66L510.848 779.319C513.718 781.293 515.297 784.663 514.977 788.131L512.341 816.626C511.956 820.791 514.299 824.748 518.2 826.258C528.489 830.238 539.152 833.442 550.125 835.734C554.229 836.592 558.35 834.52 560.275 830.796L573.327 805.542C574.963 802.377 578.214 800.375 581.777 800.34L611.52 800.048C614.957 800.014 618.151 801.817 619.898 804.777L634.009 828.688C636.146 832.308 640.393 834.144 644.451 833.048C655.295 830.12 665.776 826.336 675.824 821.771C679.625 820.044 681.731 815.967 681.113 811.838L676.875 783.55C676.359 780.108 677.743 776.657 680.492 774.524L703.762 756.477C706.529 754.331 710.244 753.858 713.46 755.243L739.47 766.443C743.324 768.103 747.827 767.087 750.463 763.821C757.464 755.147 763.773 745.913 769.288 736.175C771.343 732.547 770.647 728.018 767.725 725.046L747.748 704.73C745.309 702.249 744.399 698.645 745.37 695.304L753.623 666.883C754.597 663.527 757.316 660.964 760.724 660.187L788.377 653.889C792.472 652.957 795.51 649.477 795.724 645.283C796.012 639.626 796.087 633.924 795.89 628.195C795.89 628.189 795.892 628.183 795.897 628.178V628.178ZM652.076 703.783C652.076 703.781 652.074 703.781 652.073 703.782C614.13 737.265 556.265 733.699 522.778 695.382C489.481 657.106 493.173 599.045 531.238 565.587C569.14 531.937 627.042 535.674 660.407 573.847C693.948 612.095 690.1 670.277 652.078 703.784C652.077 703.785 652.076 703.784 652.076 703.783V703.783Z" fill="#898989" stroke="#232323" stroke-width="20"/>
<rect x="325.766" y="231.388" width="123.955" height="80.6311" rx="8.121" stroke="#920000" stroke-width="20"/>
<path d="M365.324 148.627C366.092 139.623 373.626 132.705 382.663 132.705H389.597C398.473 132.705 405.926 139.385 406.895 148.209L415.036 222.381C415.563 227.188 411.799 231.388 406.963 231.388H367.102C362.345 231.388 358.606 227.317 359.011 222.576L365.324 148.627Z" stroke="#920000" stroke-width="20"/>
<path d="M268 333.265C268 333.265 266.797 312.02 387.743 312.02C508.69 312.02 508.69 333.265 508.69 333.265L508.69 842.305C508.69 842.305 508.69 871.623 388.345 871.623C268 871.623 268 842.305 268 842.305L268 333.265Z" fill="white" stroke="#232323" stroke-width="20"/>
<path d="M321.509 558.726C329.648 558.726 335.737 560.497 339.777 564.039C343.846 567.581 345.881 572.617 345.881 579.145C345.881 582.072 345.456 584.883 344.607 587.576C343.788 590.269 342.426 592.67 340.523 594.778C338.65 596.885 336.147 598.554 333.014 599.784C329.911 601.013 326.076 601.628 321.509 601.628V601.628C318.817 601.628 316.635 603.81 316.635 606.502V617.146C316.635 620.338 314.047 622.926 310.855 622.926H305.069C301.877 622.926 299.29 620.338 299.29 617.146V564.505C299.29 561.313 301.877 558.726 305.069 558.726H321.509ZM321.114 572.734V572.734C318.64 572.734 316.635 574.739 316.635 577.213V584.063C316.635 585.955 318.169 587.488 320.06 587.488V587.488C321.553 587.488 322.944 587.239 324.232 586.742C325.52 586.215 326.545 585.38 327.306 584.239C328.096 583.068 328.491 581.516 328.491 579.584C328.491 577.564 327.891 575.925 326.691 574.666C325.491 573.378 323.632 572.734 321.114 572.734Z" fill="#920000"/>
<path d="M404.016 558.726C407.209 558.726 409.796 561.313 409.796 564.505V597.369C409.796 602.755 408.772 607.439 406.722 611.42C404.673 615.373 401.599 618.432 397.501 620.598C393.402 622.735 388.264 623.804 382.087 623.804C373.246 623.804 366.499 621.535 361.844 616.997C357.189 612.46 354.862 606.049 354.862 597.764V564.505C354.862 561.313 357.449 558.726 360.642 558.726H366.515C369.707 558.726 372.295 561.313 372.295 564.505V596.402C372.295 600.94 373.144 604.233 374.842 606.283C376.54 608.332 379.043 609.357 382.351 609.357C384.722 609.357 386.654 608.917 388.147 608.039C389.64 607.132 390.724 605.712 391.397 603.78C392.1 601.848 392.451 599.359 392.451 596.315V564.505C392.451 561.313 395.038 558.726 398.231 558.726H404.016Z" fill="#920000"/>
<path d="M443.412 558.726C449.238 558.726 454.083 559.443 457.947 560.877C461.811 562.282 464.71 564.39 466.642 567.201C468.603 570.011 469.584 573.509 469.584 577.696C469.584 580.301 469.145 582.672 468.266 584.81C467.388 586.947 466.129 588.864 464.49 590.562C464.252 590.809 464.006 591.052 463.753 591.29C461.298 593.605 460.299 597.354 462.175 600.159L471.386 613.933C473.955 617.773 471.202 622.926 466.582 622.926H461.049C458.992 622.926 457.091 621.833 456.055 620.056L444.921 600.949C444.422 600.091 443.504 599.564 442.512 599.564V599.564C440.972 599.564 439.723 600.813 439.723 602.353V617.146C439.723 620.338 437.136 622.926 433.944 622.926H428.158C424.966 622.926 422.378 620.338 422.378 617.146V564.505C422.378 561.313 424.966 558.726 428.158 558.726H443.412ZM443.149 571.855V571.855C441.257 571.855 439.723 573.389 439.723 575.281V583.273C439.723 585.067 441.178 586.522 442.973 586.522V586.522C445.637 586.522 447.818 585.937 449.516 584.766C451.214 583.595 452.063 581.501 452.063 578.486C452.063 576.408 451.36 574.783 449.955 573.612C448.55 572.441 446.281 571.855 443.149 571.855Z" fill="#920000"/>
</svg>
