<svg width="1000" height="1000" viewBox="0 0 1000 1000" fill="none" xmlns="http://www.w3.org/2000/svg">
<path d="M465.929 187.624C483.503 166.881 515.497 166.881 533.071 187.624L564.465 224.679C575.242 237.399 592.282 242.935 608.478 238.979L655.657 227.454C682.067 221.003 707.95 239.808 709.976 266.919L713.594 315.351C714.836 331.976 725.367 346.471 740.795 352.79L785.738 371.197C810.896 381.501 820.783 411.929 806.486 435.053L780.946 476.361C772.179 490.541 772.179 508.459 780.946 522.639L806.486 563.947C820.783 587.071 810.896 617.499 785.738 627.803L740.795 646.21C725.368 652.529 714.836 667.024 713.594 683.649L709.976 732.081C707.95 759.192 682.067 777.997 655.657 771.546L608.478 760.021C592.282 756.065 575.242 761.601 564.465 774.321L533.071 811.376C515.497 832.119 483.503 832.119 465.929 811.376L434.535 774.321C423.758 761.601 406.718 756.065 390.522 760.021L343.343 771.546C316.933 777.997 291.05 759.192 289.024 732.081L285.406 683.649C284.164 667.024 273.632 652.529 258.205 646.21L213.262 627.803C188.104 617.499 178.217 587.071 192.514 563.947L218.054 522.639C226.821 508.459 226.821 490.541 218.054 476.361L192.514 435.053C178.217 411.929 188.104 381.501 213.262 371.197L258.205 352.79C273.632 346.471 284.164 331.976 285.406 315.351L289.024 266.919C291.05 239.808 316.933 221.003 343.343 227.454L390.522 238.979C406.718 242.935 423.758 237.399 434.535 224.679L465.929 187.624Z" fill="white" stroke="#232323" stroke-width="20"/>
<path d="M465.919 519.287C465.919 522.601 463.233 525.287 459.919 525.287H417.275C413.961 525.287 411.275 522.601 411.275 519.287V427.229C411.275 425.42 411.275 422.12 411.275 417.328C411.275 412.445 411.321 407.065 411.411 401.188C411.476 399.092 411.547 397.071 411.623 395.124C411.746 391.986 407.69 390.343 405.416 392.508V392.508C403.417 394.497 401.464 396.351 399.556 398.069L381.583 412.832C379.018 414.939 375.23 414.563 373.129 411.993L352.812 387.135C350.709 384.563 351.098 380.771 353.678 378.678L410.799 332.359C415.074 328.892 420.411 327 425.915 327H459.919C463.233 327 465.919 329.686 465.919 333V519.287Z" fill="#920000"/>
<path d="M588.769 395.356C599.852 395.356 609.936 397.843 619.021 402.816C628.105 407.789 635.373 415.022 640.824 424.516C646.275 434.01 649 445.584 649 459.237C649 473.975 646.002 486.498 640.006 496.806C634.101 507.023 625.153 514.799 613.161 520.134C601.26 525.378 586.225 528 568.056 528C556.518 528 545.98 527.096 536.441 525.287C528.409 523.827 521.099 521.68 514.511 518.847C512.4 517.94 511.095 515.827 511.095 513.529V482.642C511.095 478.283 515.616 475.342 519.708 476.843C524.701 478.673 530.234 480.4 536.305 482.022C546.207 484.554 555.292 485.82 563.559 485.82C570.191 485.82 575.823 484.87 580.456 482.972C585.09 481.073 588.587 478.27 590.949 474.563C593.402 470.856 594.628 466.289 594.628 460.864C594.628 453.36 591.903 447.482 586.452 443.233C581.002 438.893 572.735 436.723 561.651 436.723C556.655 436.723 551.749 437.22 546.934 438.215C544.058 438.809 541.393 439.435 538.938 440.094C535.918 440.904 532.693 440.695 529.89 439.309L521.73 435.277C517.359 433.116 514.73 428.526 515.078 423.662L518.249 379.352L521.598 332.572C521.823 329.432 524.435 327 527.583 327H629.646C632.959 327 635.646 329.686 635.646 333V365.621C635.646 368.935 632.959 371.621 629.646 371.621H573.247C570.151 371.621 567.563 373.978 567.274 377.062L566.072 389.881C565.701 393.849 569.229 397.07 573.15 396.358C573.496 396.295 573.842 396.233 574.188 396.17C577.277 395.628 582.137 395.356 588.769 395.356Z" fill="#920000"/>
<path d="M445.005 664.278C445.005 667.592 442.319 670.278 439.005 670.278H417.694C414.38 670.278 411.694 667.592 411.694 664.278V603.778C411.694 600.465 409.007 597.778 405.694 597.778H397.594C394.484 597.778 391.894 600.156 391.591 603.251C390.495 614.452 389.187 624.137 387.669 632.306C385.965 641.72 383.665 649.355 380.768 655.21C377.871 661.065 374.179 665.341 369.693 668.039C365.262 670.68 359.725 672 353.08 672C350.467 672 347.769 671.742 344.986 671.225C343.906 671.043 342.888 670.839 341.933 670.612C339.521 670.039 338 667.782 338 665.303V648.068C338 646.368 339.824 645.245 341.493 645.566V645.566C342.743 645.796 344.077 645.91 345.497 645.91C346.917 645.91 348.252 645.451 349.501 644.533C350.751 643.614 351.944 641.777 353.08 639.022C354.272 636.267 355.38 632.22 356.402 626.881C357.424 621.486 358.418 614.396 359.384 605.614C360.209 598.112 360.992 589.019 361.734 578.335C361.953 575.179 364.571 572.722 367.734 572.722H439.005C442.319 572.722 445.005 575.408 445.005 578.722V664.278Z" fill="#920000"/>
<path d="M509.797 571C519.169 571 527.262 572.665 534.078 575.994C540.894 579.266 546.147 584.203 549.839 590.804C553.531 597.405 555.377 605.671 555.377 615.602V624.584C555.377 627.898 552.69 630.584 549.377 630.584H502.168C498.724 630.584 495.863 633.558 497.114 636.768C498.056 639.187 499.501 641.316 501.448 643.155C504.97 646.427 510.138 648.063 516.954 648.063C522.974 648.063 528.484 647.46 533.482 646.255C535.73 645.719 538.006 645.052 540.31 644.255C544.472 642.815 549.072 645.731 549.072 650.134V661.243C549.072 663.464 547.856 665.529 545.828 666.435C542.08 668.11 538.078 669.391 533.822 670.278C528.313 671.426 521.356 672 512.95 672C503.237 672 494.548 670.249 486.88 666.748C479.212 663.246 473.164 657.822 468.733 650.474C464.36 643.126 462.173 633.684 462.173 622.146C462.173 610.436 464.161 600.821 468.137 593.301C472.113 585.724 477.679 580.127 484.835 576.511C491.992 572.837 500.312 571 509.797 571ZM510.99 593.904C507.071 593.904 503.777 595.167 501.108 597.692C499.682 599.039 498.577 600.814 497.794 603.015C496.617 606.327 499.525 609.402 503.039 609.402H519.013C522.373 609.402 525.201 606.576 524.144 603.386C523.938 602.764 523.699 602.157 523.429 601.567C522.349 599.213 520.759 597.348 518.658 595.97C516.613 594.592 514.057 593.904 510.99 593.904Z" fill="#920000"/>
<path d="M662 591.778C662 595.092 659.314 597.778 656 597.778H636.222C632.909 597.778 630.222 600.465 630.222 603.778V664.278C630.222 667.592 627.536 670.278 624.222 670.278H602.911C599.597 670.278 596.911 667.592 596.911 664.278V603.778C596.911 600.465 594.225 597.778 590.911 597.778H571.133C567.82 597.778 565.133 595.092 565.133 591.778V578.722C565.133 575.408 567.82 572.722 571.133 572.722H656C659.314 572.722 662 575.408 662 578.722V591.778Z" fill="#920000"/>
</svg>
