<svg width="1000" height="1000" viewBox="0 0 1000 1000" fill="none" xmlns="http://www.w3.org/2000/svg">
<g clip-path="url(#clip0_66_200)">
<path d="M670.358 575.644L607.557 683.241L742.922 762.248L782.196 718.873C790.906 709.254 798.593 698.756 805.134 687.549L897.001 530.152C905.951 514.819 909.834 497.054 908.098 479.385L887.973 274.556C887.973 274.556 887.874 273.703 887.432 272.348C878.915 246.251 833.477 254.466 823.622 280.087C820.441 288.358 819.987 295.367 819.987 295.367L827.467 457.945L827.454 513.777C809.235 489.183 788.693 500.46 788.693 500.46L670.358 575.644Z" fill="white"/>
<path d="M827.454 513.777C809.235 489.183 788.693 500.46 788.693 500.46L687.986 564.444C676.403 571.804 666.749 581.828 659.831 593.681L607.557 683.241L742.922 762.248L782.196 718.873C790.906 709.254 798.593 698.756 805.134 687.549L897.001 530.152C905.951 514.819 909.834 497.054 908.098 479.385L887.973 274.556C887.973 274.556 887.874 273.703 887.432 272.348C878.915 246.251 833.477 254.466 823.622 280.087C820.441 288.358 819.987 295.367 819.987 295.367L827.454 513.777ZM827.454 513.777C842.201 536.344 814.137 552.537 814.137 552.537L736.305 614.135" stroke="#232323" stroke-width="20" stroke-linecap="round" stroke-linejoin="round"/>
<path d="M552.297 730.093L527.306 772.909C522.088 781.85 525.105 793.328 534.046 798.546L682.154 884.992C691.095 890.211 702.573 887.193 707.792 878.252L757.773 792.62C762.991 783.679 759.973 772.201 751.033 766.983L602.924 680.537C593.984 675.318 582.505 678.336 577.287 687.276L552.297 730.093ZM552.297 730.093L639.068 780.739" stroke="#920000" stroke-width="20" stroke-linecap="round"/>
<path d="M328.642 578.888L391.443 686.485L256.078 765.493L216.804 722.117C208.094 712.498 200.407 702 193.866 690.794L101.999 533.396C93.0493 518.064 89.1661 500.298 90.9021 482.63L111.027 277.8C111.027 277.8 111.126 276.947 111.568 275.592C120.085 249.495 165.523 257.71 175.378 283.332C178.559 291.602 179.013 298.611 179.013 298.611L171.533 461.189L171.546 517.021C189.765 492.427 210.307 503.704 210.307 503.704L328.642 578.888Z" fill="white"/>
<path d="M171.546 517.021C189.765 492.427 210.307 503.704 210.307 503.704L311.014 567.688C322.597 575.048 332.251 585.073 339.169 596.925L391.443 686.485L256.078 765.493L216.804 722.117C208.094 712.498 200.407 702 193.866 690.794L101.999 533.396C93.0493 518.064 89.1661 500.298 90.9021 482.63L111.027 277.8C111.027 277.8 111.126 276.947 111.568 275.592C120.085 249.495 165.523 257.71 175.378 283.332C178.559 291.602 179.013 298.611 179.013 298.611L171.546 517.021ZM171.546 517.021C156.799 539.588 184.863 555.781 184.863 555.781L262.695 617.379" stroke="#232323" stroke-width="20" stroke-linecap="round" stroke-linejoin="round"/>
<path d="M446.703 733.337L471.694 776.153C476.912 785.094 473.895 796.572 464.954 801.79L316.846 888.236C307.905 893.455 296.427 890.437 291.208 881.497L241.227 795.864C236.009 786.923 239.027 775.445 247.967 770.227L396.076 683.781C405.016 678.562 416.495 681.58 421.713 690.52L446.703 733.337ZM446.703 733.337L359.932 783.983" stroke="#920000" stroke-width="20" stroke-linecap="round"/>
<path d="M517.41 222.967C517.41 222.967 610.503 111.179 702.841 203.58C770.946 271.732 723.582 341.263 714.75 352.935C713.861 354.111 712.882 355.162 711.83 356.195L517.59 547L322.39 355.428C321.858 354.906 321.352 354.36 320.893 353.772C314.136 345.124 262.163 273.624 332.159 203.58C424.497 111.179 517.41 222.967 517.41 222.967ZM517.41 222.967L496.349 244.043" stroke="#920000" stroke-width="20" stroke-linecap="round" stroke-linejoin="round"/>
</g>
<defs>
<clipPath id="clip0_66_200">
<rect width="1000" height="1000" fill="white"/>
</clipPath>
</defs>
</svg>
