<svg width="1000" height="1000" viewBox="0 0 1000 1000" fill="none" xmlns="http://www.w3.org/2000/svg">
<path d="M314.107 409.363L383.377 353.699" stroke="#920000" stroke-width="20" stroke-linecap="round" stroke-linejoin="round"/>
<path d="M683.703 409.363L614.433 353.699" stroke="#920000" stroke-width="20" stroke-linecap="round" stroke-linejoin="round"/>
<path d="M314.107 589.051L383.377 644.715" stroke="#920000" stroke-width="20" stroke-linecap="round" stroke-linejoin="round"/>
<path d="M683.703 589.051L614.433 644.715" stroke="#920000" stroke-width="20" stroke-linecap="round" stroke-linejoin="round"/>
<circle cx="204.505" cy="498.087" r="128.505" stroke="#232323" stroke-width="20"/>
<circle cx="500.5" cy="281.505" r="128.505" stroke="#232323" stroke-width="20"/>
<circle cx="796.495" cy="498.087" r="128.505" stroke="#232323" stroke-width="20"/>
<circle cx="500.5" cy="717.556" r="128.505" stroke="#232323" stroke-width="20"/>
<rect x="139.531" y="453.327" width="95.2959" height="95.2959" rx="10.1071" fill="#898989" stroke="#232323" stroke-width="20"/>
<path d="M175.628 485.814L209.559 519.745L269.48 446.107" stroke="#920000" stroke-width="20" stroke-linecap="round" stroke-linejoin="round"/>
<path d="M884.965 468.783C884.967 468.782 884.967 468.78 884.967 468.778C884.916 466.976 884.782 465.187 884.581 463.422C884.412 461.939 883.255 460.775 881.783 460.531L872.591 459.008C871.358 458.803 870.333 457.948 869.912 456.772L866.646 447.654C866.225 446.48 866.472 445.17 867.292 444.229L873.419 437.205C874.4 436.079 874.552 434.444 873.736 433.193C871.731 430.12 869.487 427.224 867.035 424.524C866.027 423.414 864.399 423.148 863.058 423.821L854.734 428.001C853.617 428.562 852.285 428.474 851.252 427.771L843.245 422.326C842.212 421.624 841.641 420.418 841.751 419.174L842.578 409.878C842.71 408.387 841.868 406.973 840.469 406.442C837.226 405.209 833.864 404.21 830.411 403.476C828.947 403.165 827.474 403.9 826.78 405.226L822.452 413.494C821.871 414.604 820.734 415.31 819.482 415.34L809.8 415.567C808.552 415.596 807.387 414.949 806.753 413.874L802.004 405.825C801.242 404.534 799.731 403.876 798.283 404.261C794.712 405.211 791.257 406.433 787.943 407.913C786.576 408.523 785.817 409.983 786.036 411.463L787.397 420.692C787.58 421.93 787.077 423.169 786.083 423.93L778.383 429.82C777.393 430.577 776.071 430.74 774.926 430.246L766.368 426.551C764.994 425.958 763.388 426.314 762.445 427.476C760.147 430.305 758.068 433.322 756.236 436.506C755.491 437.802 755.734 439.428 756.78 440.497L763.153 447.014C764.014 447.894 764.339 449.167 764.007 450.353L762.674 455.098L761.358 459.783C761.016 461.001 760.035 461.933 758.801 462.211L749.739 464.256C748.28 464.585 747.192 465.818 747.108 467.311C747.001 469.23 746.97 471.176 747.031 473.143C747.095 474.865 747.219 476.565 747.398 478.247C747.557 479.741 748.714 480.921 750.195 481.17L759.375 482.717C760.607 482.925 761.63 483.785 762.048 484.963L765.282 494.088C765.699 495.265 765.446 496.576 764.621 497.513L758.462 504.513C757.47 505.639 757.316 507.283 758.135 508.541C760.142 511.623 762.38 514.543 764.83 517.257C765.834 518.368 767.458 518.638 768.799 517.97L777.147 513.813C778.265 513.256 779.596 513.348 780.627 514.054L788.617 519.523C789.648 520.229 790.216 521.438 790.101 522.683L789.237 531.976C789.099 533.469 789.94 534.889 791.341 535.425C794.729 536.722 798.238 537.771 801.846 538.529C803.312 538.837 804.784 538.098 805.474 536.768L809.759 528.515C810.346 527.384 811.508 526.67 812.781 526.658L822.602 526.562C823.83 526.55 824.971 527.193 825.598 528.249L830.231 536.065C830.996 537.356 832.513 538.011 833.962 537.619C837.527 536.653 840.975 535.414 844.285 533.925C845.651 533.311 846.407 531.848 846.185 530.367L844.797 521.142C844.611 519.907 845.108 518.668 846.097 517.904L849.933 514.943L853.769 511.981C854.757 511.217 856.082 511.049 857.23 511.541L865.788 515.211C867.165 515.801 868.771 515.439 869.712 514.274C872.007 511.431 874.081 508.41 875.901 505.228C876.645 503.928 876.394 502.3 875.342 501.235L868.797 494.608C867.919 493.719 867.591 492.424 867.941 491.224L870.657 481.912C871.007 480.711 871.981 479.795 873.201 479.518L882.284 477.459C883.751 477.126 884.841 475.88 884.914 474.378C885.005 472.527 885.028 470.662 884.963 468.789C884.963 468.787 884.964 468.785 884.965 468.783V468.783ZM836.404 494.199C836.404 494.199 836.403 494.199 836.403 494.199C823.592 505.455 804.053 504.256 792.747 491.375C781.504 478.508 782.751 458.99 795.603 447.742C808.401 436.43 827.951 437.686 839.217 450.519C850.542 463.377 849.243 482.936 836.405 494.2C836.404 494.2 836.404 494.2 836.404 494.199V494.199Z" fill="#920000" stroke="#920000" stroke-width="11"/>
<path d="M845.965 525.783C845.967 525.782 845.967 525.78 845.967 525.778C845.916 523.976 845.782 522.187 845.581 520.422C845.412 518.939 844.255 517.775 842.783 517.531L833.591 516.008C832.358 515.803 831.333 514.948 830.912 513.772L827.646 504.654C827.225 503.48 827.472 502.17 828.292 501.229L834.419 494.205C835.4 493.079 835.552 491.444 834.736 490.193C832.731 487.12 830.488 484.224 828.035 481.524C827.027 480.414 825.399 480.148 824.058 480.821L815.734 485.001C814.617 485.562 813.285 485.474 812.252 484.771L804.245 479.326C803.212 478.624 802.641 477.418 802.751 476.174L803.578 466.878C803.711 465.387 802.868 463.973 801.469 463.442C798.226 462.209 794.864 461.21 791.411 460.476C789.947 460.165 788.474 460.9 787.78 462.226L783.452 470.494C782.871 471.604 781.734 472.31 780.482 472.34L770.8 472.567C769.552 472.596 768.387 471.949 767.753 470.874L763.004 462.825C762.242 461.534 760.731 460.876 759.283 461.261C755.712 462.211 752.257 463.433 748.943 464.913C747.576 465.523 746.817 466.983 747.036 468.463L748.397 477.692C748.58 478.93 748.077 480.169 747.083 480.93L739.383 486.82C738.393 487.577 737.071 487.74 735.926 487.246L727.368 483.551C725.994 482.958 724.388 483.314 723.445 484.476C721.147 487.305 719.068 490.322 717.236 493.506C716.491 494.802 716.734 496.428 717.78 497.497L724.153 504.014C725.014 504.894 725.339 506.167 725.007 507.353L722.358 516.783C722.016 518.001 721.035 518.933 719.801 519.211L710.739 521.256C709.28 521.585 708.192 522.818 708.108 524.311C708.001 526.23 707.97 528.176 708.031 530.143C708.095 531.865 708.219 533.565 708.398 535.247C708.557 536.741 709.714 537.921 711.195 538.17L720.375 539.717C721.607 539.925 722.63 540.785 723.048 541.963L726.282 551.088C726.699 552.265 726.446 553.576 725.622 554.513L719.462 561.513C718.47 562.639 718.316 564.283 719.135 565.541C721.142 568.623 723.38 571.543 725.83 574.257C726.834 575.368 728.458 575.638 729.799 574.97L738.147 570.813C739.265 570.256 740.596 570.348 741.627 571.054L749.617 576.523C750.648 577.229 751.216 578.438 751.101 579.683L750.237 588.976C750.099 590.469 750.94 591.889 752.341 592.425C755.729 593.722 759.238 594.771 762.846 595.529C764.312 595.837 765.784 595.098 766.474 593.768L770.759 585.515C771.346 584.384 772.508 583.67 773.781 583.658L783.602 583.562C784.83 583.55 785.971 584.193 786.598 585.249L791.231 593.065C791.996 594.356 793.513 595.011 794.962 594.619C798.527 593.653 801.975 592.414 805.285 590.925C806.651 590.311 807.407 588.848 807.185 587.367L805.797 578.142C805.611 576.907 806.108 575.668 807.097 574.904L814.769 568.981C815.757 568.217 817.082 568.049 818.23 568.541L826.788 572.211C828.165 572.801 829.771 572.439 830.712 571.274C833.007 568.431 835.081 565.41 836.901 562.228C837.645 560.928 837.394 559.3 836.342 558.235L829.797 551.608C828.919 550.719 828.591 549.424 828.941 548.224L831.657 538.912C832.007 537.711 832.981 536.795 834.201 536.518L843.284 534.459C844.751 534.126 845.841 532.88 845.914 531.378C846.005 529.527 846.028 527.662 845.963 525.789C845.963 525.787 845.964 525.785 845.965 525.783V525.783ZM797.404 551.199C797.404 551.199 797.403 551.199 797.403 551.199C784.592 562.455 765.053 561.256 753.747 548.375C742.504 535.508 743.751 515.99 756.603 504.742C769.401 493.43 788.951 494.686 800.217 507.519C811.542 520.377 810.243 539.936 797.405 551.2C797.404 551.2 797.404 551.2 797.404 551.199V551.199Z" fill="#898989" stroke="#232323" stroke-width="11"/>
<path d="M563.474 695.781H519.358C518.239 695.781 517.389 694.721 517.694 693.642C519.488 687.269 519.643 680.366 519.643 673.838C519.643 670.234 519.818 666.141 519.418 662.197C519.013 658.183 518.024 654.319 515.659 651.27C513.04 647.886 509.132 645.362 504.783 645.362C494.706 645.362 493.112 655.239 492.172 663.232C491.077 672.564 490.643 682.215 486.514 690.818C483.625 696.841 479.531 702.014 473.103 704.548C468.16 706.498 464.536 708.017 459.323 709.032C458.518 709.187 457.933 709.882 457.933 710.706V775.935C457.933 776.885 458.703 777.655 459.653 777.655H477.702C478.252 777.655 478.751 777.925 479.081 778.364C482.64 783.138 488.328 786.232 494.741 786.232H551.288C559.54 786.232 566.293 779.479 566.293 771.227C566.293 769.092 565.778 767.073 564.869 765.279C564.509 764.569 564.694 763.704 565.313 763.209C568.372 760.77 570.347 755.207 570.347 751.013V749.294C570.347 747.159 569.832 745.14 568.922 743.346C568.562 742.636 568.747 741.771 569.367 741.276C572.426 738.837 574.406 735.088 574.406 730.895V729.175C574.406 727.041 573.891 725.022 572.981 723.227C572.621 722.517 572.806 721.653 573.431 721.158C576.49 718.719 578.469 714.97 578.469 710.776C578.469 702.524 571.716 695.771 563.464 695.771L563.474 695.781Z" fill="#898989" stroke="#232323" stroke-width="20"/>
<rect width="35.4485" height="82.4596" rx="7.2132" transform="matrix(-1 -8.74228e-08 -8.74228e-08 1 457.979 701.826)" fill="white" stroke="#920000" stroke-width="20"/>
<path d="M496.542 204.945C498.015 200.411 504.429 200.411 505.902 204.945L520.378 249.497C521.037 251.524 522.926 252.897 525.058 252.897H571.902C576.669 252.897 578.651 258.997 574.795 261.799L536.897 289.333C535.172 290.587 534.45 292.808 535.109 294.835L549.585 339.387C551.058 343.921 545.869 347.691 542.012 344.889L504.114 317.354C502.39 316.101 500.054 316.101 498.329 317.354L460.432 344.889C456.575 347.691 451.386 343.921 452.859 339.387L467.335 294.835C467.993 292.808 467.272 290.587 465.547 289.333L427.649 261.799C423.793 258.997 425.775 252.897 430.542 252.897H477.386C479.518 252.897 481.407 251.524 482.066 249.497L496.542 204.945Z" fill="white" stroke="#920000" stroke-width="20"/>
</svg>
