<svg width="1000" height="1000" viewBox="0 0 1000 1000" fill="none" xmlns="http://www.w3.org/2000/svg">
<path d="M497.319 280.647L731.328 413.988V691.072L497.319 820L267.095 691.072V413.988L497.319 280.647Z" fill="#898989"/>
<path d="M267.095 413.988L262.083 405.335C258.996 407.123 257.095 410.42 257.095 413.988H267.095ZM731.328 413.988H741.328C741.328 410.395 739.4 407.078 736.279 405.3L731.328 413.988ZM497.319 820L492.433 828.725C495.447 830.413 499.119 830.426 502.145 828.759L497.319 820ZM504.39 75.9289C500.485 72.0237 494.153 72.0237 490.248 75.9289L426.609 139.569C422.703 143.474 422.703 149.805 426.609 153.711C430.514 157.616 436.846 157.616 440.751 153.711L497.319 97.1421L553.888 153.711C557.793 157.616 564.125 157.616 568.03 153.711C571.935 149.805 571.935 143.474 568.03 139.569L504.39 75.9289ZM903.926 790.789C909.207 789.173 912.178 783.582 910.562 778.301L884.224 692.241C882.608 686.96 877.017 683.989 871.736 685.605C866.455 687.221 863.484 692.813 865.1 698.094L888.511 774.591L812.014 798.003C806.733 799.619 803.762 805.21 805.378 810.491C806.994 815.772 812.585 818.743 817.866 817.127L903.926 790.789ZM89.4265 778.338C87.8308 783.625 90.8234 789.205 96.1107 790.801L182.272 816.804C187.56 818.4 193.139 815.407 194.735 810.12C196.331 804.833 193.338 799.253 188.051 797.657L111.463 774.543L134.577 697.955C136.173 692.668 133.18 687.088 127.893 685.492C122.606 683.896 117.026 686.889 115.43 692.176L89.4265 778.338ZM262.164 422.688L492.388 553.191L502.251 535.792L272.027 405.289L262.164 422.688ZM502.19 553.226L736.199 422.722L726.457 405.254L492.449 535.758L502.19 553.226ZM736.279 405.3L502.27 271.959L492.369 289.336L726.377 422.677L736.279 405.3ZM492.307 271.994L262.083 405.335L272.107 422.641L502.331 289.301L492.307 271.994ZM257.095 413.988V691.072H277.095V413.988H257.095ZM262.209 699.797L492.433 828.725L502.205 811.275L271.981 682.347L262.209 699.797ZM507.319 820V544.492H487.319V820H507.319ZM502.145 828.759L736.154 699.831L726.502 682.314L492.494 811.241L502.145 828.759ZM741.328 691.072V413.988H721.328V691.072H741.328ZM507.319 280.647V83H487.319V280.647H507.319ZM726.636 699.903L896.308 790.058L905.692 772.396L736.02 682.242L726.636 699.903ZM262.369 682.26L94.2736 772.415L103.726 790.04L271.822 699.885L262.369 682.26Z" fill="#232323"/>
<circle cx="500" cy="763" r="153" fill="white" stroke="#920000" stroke-width="20"/>
<path d="M480.971 737.287C480.971 742.269 479.894 746.581 477.742 750.222C475.637 753.814 472.815 756.76 469.275 759.06C465.836 761.324 462.074 763.03 457.986 764.18C457.873 764.212 457.794 764.315 457.794 764.433V764.433C457.794 764.565 457.893 764.677 458.024 764.694C466.284 765.766 472.665 768.319 477.168 772.353C481.76 776.377 484.056 782.102 484.056 789.527C484.056 795.275 482.525 800.545 479.464 805.335C476.402 810.078 471.643 813.886 465.185 816.76C458.727 819.587 450.427 821 440.285 821C433.493 821 427.704 820.497 422.921 819.491C420.415 818.964 417.948 818.332 415.521 817.595C411.533 816.383 409 812.584 409 808.416V806.734C409 799.9 416.348 795.403 422.992 797V797C427.824 798.102 432.225 798.653 436.195 798.653C443.084 798.653 447.772 797.671 450.259 795.707C452.795 793.743 454.062 791.108 454.062 787.802C454.062 785.407 453.464 783.371 452.269 781.695C451.073 780.018 448.848 778.725 445.595 777.814C442.39 776.904 437.774 776.449 431.746 776.449V776.449C428.18 776.449 425.288 773.558 425.288 769.991V761.709C425.288 758.063 428.244 755.108 431.89 755.108V755.108C437.248 755.108 441.481 754.629 444.591 753.671C447.748 752.713 450.02 751.419 451.407 749.79C452.795 748.114 453.488 746.198 453.488 744.042C453.488 741.263 452.412 739.204 450.259 737.862C448.107 736.521 445.26 735.85 441.72 735.85C438.563 735.85 435.597 736.281 432.823 737.144C430.048 738.006 427.633 738.964 425.576 740.018V740.018C422.963 741.357 419.647 740.566 418.099 738.071L414.864 732.856C411.665 727.7 413.081 720.862 418.599 718.338C420.351 717.536 422.174 716.787 424.069 716.09C429.713 714.03 437.08 713 446.169 713C456.98 713 465.472 715.156 471.643 719.467C477.861 723.778 480.971 729.719 480.971 737.287Z" fill="#920000"/>
<path d="M589 764.808C589 777.024 586.728 787.18 582.183 795.275C577.639 803.371 571.229 809.455 562.953 813.527C554.725 817.551 545.038 819.563 533.892 819.563H512.951C505.772 819.563 499.951 813.743 499.951 806.563V727.509C499.951 720.329 505.772 714.509 512.951 714.509H536.26C547.549 714.509 557.117 716.449 564.962 720.329C572.807 724.21 578.763 729.886 582.829 737.359C586.943 744.832 589 753.982 589 764.808ZM559.58 765.814C559.58 759.443 558.719 754.174 556.997 750.006C555.323 745.79 552.787 742.653 549.391 740.593C545.995 738.485 541.713 737.431 536.547 737.431V737.431C531.989 737.431 528.295 741.126 528.295 745.683V789.967C528.295 793.454 531.122 796.281 534.609 796.281V796.281C543.22 796.281 549.535 793.79 553.553 788.808C557.571 783.778 559.58 776.114 559.58 765.814Z" fill="#920000"/>
</svg>
