<svg width="1000" height="1000" viewBox="0 0 1000 1000" fill="none" xmlns="http://www.w3.org/2000/svg">
<path d="M475 342H812" stroke="#920000" stroke-width="20" stroke-linecap="round" stroke-linejoin="round"/>
<path d="M475 435H812" stroke="#920000" stroke-width="20" stroke-linecap="round" stroke-linejoin="round"/>
<path d="M526 518L812 518" stroke="#920000" stroke-width="20" stroke-linecap="round" stroke-linejoin="round"/>
<circle cx="319" cy="358" r="77" stroke="#232323" stroke-width="20"/>
<path d="M451.998 567.753C452 568.194 451.715 568.585 451.291 568.708C444.367 570.709 387.557 586.5 318.5 586.5C249.443 586.5 192.633 570.709 185.709 568.708C185.285 568.585 185 568.194 185.002 567.753C185.404 494.367 245.019 435 318.5 435C391.981 435 451.596 494.367 451.998 567.753Z" stroke="#232323" stroke-width="20" stroke-linejoin="round"/>
<circle cx="319" cy="358" r="77" fill="#898989" stroke="#232323" stroke-width="20"/>
<path d="M451.998 567.753C452 568.194 451.715 568.585 451.291 568.708C444.367 570.709 387.557 586.5 318.5 586.5C249.443 586.5 192.633 570.709 185.709 568.708C185.285 568.585 185 568.194 185.002 567.753C185.404 494.367 245.019 435 318.5 435C391.981 435 451.596 494.367 451.998 567.753Z" fill="#898989" stroke="#232323" stroke-width="20" stroke-linejoin="round"/>
<rect x="114" y="183" width="771" height="633" rx="12" stroke="#232323" stroke-width="20"/>
<path d="M660.774 577.102C670.577 565.532 688.423 565.532 698.226 577.102V577.102C704.237 584.197 713.742 587.285 722.775 585.079V585.079C737.507 581.48 751.944 591.969 753.074 607.092V607.092C753.767 616.365 759.641 624.451 768.247 627.975V627.975C782.28 633.723 787.795 650.695 779.82 663.593V663.593C774.93 671.503 774.93 681.497 779.82 689.407V689.407C787.795 702.305 782.28 719.277 768.247 725.025V725.025C759.641 728.549 753.767 736.635 753.074 745.908V745.908C751.944 761.031 737.507 771.52 722.775 767.921V767.921C713.742 765.715 704.237 768.803 698.226 775.898V775.898C688.423 787.468 670.577 787.468 660.774 775.898V775.898C654.763 768.803 645.258 765.715 636.225 767.921V767.921C621.493 771.52 607.056 761.031 605.926 745.908V745.908C605.233 736.635 599.359 728.549 590.753 725.025V725.025C576.72 719.277 571.205 702.305 579.18 689.407V689.407C584.07 681.497 584.07 671.503 579.18 663.593V663.593C571.205 650.695 576.72 633.723 590.753 627.975V627.975C599.359 624.451 605.233 616.365 605.926 607.092V607.092C607.056 591.969 621.493 581.48 636.225 585.079V585.079C645.258 587.285 654.763 584.197 660.774 577.102V577.102Z" fill="white" stroke="#232323" stroke-width="20"/>
<path d="M631.823 679.788L666.613 714.578L728.051 639.076" stroke="#920000" stroke-width="20" stroke-linecap="round" stroke-linejoin="round"/>
</svg>
